# xmcd
#
# Track frame offsets: 
#        150
#        15350
#        33371
#        53817
#        72855
#        88106
#        104623
#        129818
#        149320
#        180180
#        194956
#        209099
#        228405
#        246904
#        265600
#        277343
#
# Disc length: 3957 seconds
#
# Revision: 0
# Processed by: cddbd v1.5.2PL0 Copyright (c) Steve Scherf et al.
# Submitted via: ExactAudioCopy v0.99pb5
#
DISCID=eb0f7310
DTITLE=Dr John And The Lower 911 - Tribal
DYEAR=2010
DGENRE=Blues
TTITLE0=Feel Good Music
TTITLE1=Lissen At Our Prayer
TTITLE2=Big Gap
TTITLE3=When I'm Right (I'm Wrong)
TTITLE4=Jinky Jinx
TTITLE5=Change Of Heart
TTITLE6=Sleepin' In My Bed
TTITLE7=Whut's Wit Dat
TTITLE8=Tribal
TTITLE9=Them
TTITLE10=Only In Amerika
TTITLE11=Potnah
TTITLE12=Music Came
TTITLE13=Mancovas
TTITLE14=Seroungin'
TTITLE15=A Place In The Sun
EXTD=
EXTT0=
EXTT1=
EXTT2=
EXTT3=
EXTT4=
EXTT5=
EXTT6=
EXTT7=
EXTT8=
EXTT9=
EXTT10=
EXTT11=
EXTT12=
EXTT13=
EXTT14=
EXTT15=
PLAYORDER=
